<?xml version="1.0" standalone="no"?>
<!DOCTYPE svg PUBLIC "-//W3C//DTD SVG 20010904//EN"
 "http://www.w3.org/TR/2001/REC-SVG-20010904/DTD/svg10.dtd">
<svg version="1.0" xmlns="http://www.w3.org/2000/svg"
 width="980.000000pt" height="980.000000pt" viewBox="0 0 980.000000 980.000000"
 preserveAspectRatio="xMidYMid meet">

<g transform="translate(0.000000,980.000000) scale(0.100000,-0.100000)"
fill="#000000" stroke="none">
<path d="M4545 9089 c-1209 -110 -2257 -689 -3002 -1659 -385 -501 -659 -1126
-777 -1770 -52 -282 -61 -400 -61 -770 1 -298 4 -367 23 -507 68 -507 197
-934 409 -1357 92 -184 141 -268 259 -446 651 -981 1682 -1647 2829 -1829 256
-40 343 -46 680 -46 353 0 478 10 755 61 1086 197 2054 821 2693 1737 423 606
673 1305 737 2062 13 157 13 510 -1 672 -72 882 -404 1691 -968 2363 -610 726
-1455 1232 -2366 1415 -308 62 -445 76 -795 80 -173 2 -360 -1 -415 -6z m805
-334 c1249 -152 2328 -876 2942 -1973 412 -735 569 -1597 447 -2445 -100 -695
-397 -1361 -853 -1914 -129 -156 -399 -422 -556 -547 -729 -581 -1604 -877
-2525 -853 -316 8 -558 40 -850 113 -792 198 -1515 655 -2042 1290 -481 581
-776 1269 -870 2034 -22 181 -25 654 -5 835 91 822 413 1555 952 2168 664 755
1574 1213 2595 1306 150 14 606 6 765 -14z"/>
<path d="M3347 7078 c-64 -111 -115 -203 -114 -204 6 -4 2202 -1284 3152
-1837 303 -176 600 -349 660 -385 l110 -66 560 -57 c308 -31 561 -56 563 -54
1 1 -51 33 -115 70 -65 38 -431 250 -813 473 -382 223 -870 507 -1085 632
-412 240 -1701 991 -2389 1392 -225 131 -410 238 -411 238 -1 0 -55 -91 -118
-202z"/>
<path d="M3177 6783 c-153 -258 -302 -529 -323 -585 -35 -97 -44 -251 -20
-360 30 -134 105 -261 206 -350 28 -25 198 -130 378 -233 448 -259 736 -426
740 -429 1 -2 -5 -19 -13 -39 -19 -47 -19 -142 0 -198 l16 -44 -218 -326 -218
-326 -50 -7 c-91 -13 -179 -66 -211 -127 l-15 -29 -457 2 -457 3 -3 118 -3
117 -144 0 -145 0 0 180 0 180 -155 0 -155 0 0 -710 0 -710 155 0 155 0 0 175
0 175 145 0 145 0 0 115 0 115 458 0 457 0 43 -50 c24 -28 62 -60 84 -71 94
-48 219 -31 301 41 95 84 118 198 66 327 -13 32 -13 33 203 356 l217 324 56 2
c69 1 137 34 188 90 l37 41 152 -89 c180 -104 347 -200 867 -500 l384 -221
126 102 c69 56 243 197 386 312 143 116 308 249 367 296 59 47 105 90 104 95
-1 6 -77 53 -167 106 -90 52 -438 255 -774 451 -1350 786 -1913 1114 -2393
1394 -277 162 -505 294 -507 294 -2 0 -6 -3 -8 -7z"/>
<path d="M7116 4422 c-5 -8 -287 -238 -643 -525 -40 -32 -73 -62 -73 -65 1 -9
353 -212 367 -212 11 0 727 576 730 588 1 4 -57 41 -129 82 -72 41 -157 90
-189 108 -31 18 -60 29 -63 24z"/>
</g>
</svg>
